<svg viewBox="0 0 1494 697" fill="none" xmlns="http://www.w3.org/2000/svg">
<path d="M1494 747C1494 648.903 1474.68 551.766 1437.14 461.135C1399.6 370.505 1344.57 288.157 1275.21 218.791C1205.84 149.426 1123.49 94.4022 1032.86 56.862C942.234 19.3217 845.097 -4.28798e-06 747 0C648.903 4.28798e-06 551.766 19.3217 461.135 56.862C370.505 94.4023 288.157 149.426 218.791 218.791C149.426 288.157 94.4022 370.505 56.862 461.136C19.3217 551.766 -8.57595e-06 648.903 0 747H252.532C252.532 682.066 265.321 617.767 290.171 557.775C315.02 497.784 351.442 443.274 397.358 397.358C443.274 351.442 497.783 315.02 557.775 290.171C617.767 265.321 682.065 252.532 747 252.532C811.935 252.532 876.233 265.321 936.225 290.171C996.216 315.02 1050.73 351.442 1096.64 397.358C1142.56 443.274 1178.98 497.783 1203.83 557.775C1228.68 617.767 1241.47 682.065 1241.47 747H1494Z" fill="url(#paint0_linear_4_447)" fill-opacity="0.05"/>
<defs>
<linearGradient id="paint0_linear_4_447" x1="747" y1="0" x2="747" y2="534.727" gradientUnits="userSpaceOnUse">
<stop stop-color="white"/>
<stop offset="1"/>
</linearGradient>
</defs>
</svg>
