<svg width="78" height="28" viewBox="0 0 78 28" fill="none" xmlns="http://www.w3.org/2000/svg">
<path fill-rule="evenodd" clip-rule="evenodd" d="M12 4H21V10.6666V17.3334H12V24H3V17.3334V10.6666H12V4Z" fill="#7DF406"/>
<path d="M39.8125 21.1953C38.3997 21.1953 37.1579 20.8942 36.0869 20.292C35.016 19.6898 34.181 18.832 33.582 17.7188C32.9831 16.6055 32.6836 15.2839 32.6836 13.7539C32.6836 12.1523 33.0042 10.7933 33.6455 9.67676C34.2868 8.56022 35.1445 7.71061 36.2188 7.12793C37.293 6.54525 38.4844 6.25391 39.793 6.25391C40.6523 6.25391 41.4515 6.37598 42.1904 6.62012C42.9294 6.86426 43.5853 7.21094 44.1582 7.66016C44.7311 8.10938 45.1917 8.63835 45.54 9.24707C45.8883 9.85579 46.1016 10.5247 46.1797 11.2539H42.1953C42.1367 11.0065 42.0407 10.7852 41.9072 10.5898C41.7738 10.3945 41.6077 10.2301 41.4092 10.0967C41.2106 9.96322 40.9827 9.8623 40.7256 9.79395C40.4684 9.72559 40.1836 9.69141 39.8711 9.69141C39.2135 9.69141 38.6504 9.84928 38.1816 10.165C37.7129 10.4808 37.3564 10.9382 37.1123 11.5371C36.8682 12.1361 36.7461 12.8555 36.7461 13.6953C36.7461 14.5482 36.8633 15.2773 37.0977 15.8828C37.332 16.4883 37.6787 16.9521 38.1377 17.2744C38.5967 17.5967 39.168 17.7578 39.8516 17.7578C40.4505 17.7578 40.9502 17.6699 41.3506 17.4941C41.751 17.3184 42.0505 17.0693 42.249 16.7471C42.4476 16.4248 42.5469 16.0456 42.5469 15.6094L43.2305 15.6875H39.9102V12.875H46.3555V14.8867C46.3555 16.2148 46.0755 17.3493 45.5156 18.29C44.9557 19.2308 44.1826 19.9502 43.1963 20.4482C42.21 20.9463 41.082 21.1953 39.8125 21.1953ZM47.0254 21V6.44922H53.2949C54.3757 6.44922 55.3213 6.64616 56.1318 7.04004C56.9424 7.43392 57.5739 8.00033 58.0264 8.73926C58.4788 9.47819 58.7051 10.362 58.7051 11.3906C58.7051 12.4323 58.474 13.3112 58.0117 14.0273C57.5495 14.7435 56.9017 15.2839 56.0684 15.6484C55.235 16.013 54.265 16.1953 53.1582 16.1953H49.4082V13.1289H52.3574C52.8262 13.1289 53.2266 13.0703 53.5586 12.9531C53.8906 12.8359 54.1445 12.6504 54.3203 12.3965C54.4961 12.1426 54.584 11.8073 54.584 11.3906C54.584 10.974 54.4961 10.6354 54.3203 10.375C54.1445 10.1146 53.8906 9.92253 53.5586 9.79883C53.2266 9.67513 52.8262 9.61328 52.3574 9.61328H50.9707V21H47.0254ZM54.8965 21L51.3418 14.3203H55.541L59.1934 21H54.8965ZM63.3301 6.44922V21H59.3848V6.44922H63.3301ZM69.8105 21H65.8262V17.6406H69.6543C70.377 17.6406 70.9938 17.5267 71.5049 17.2988C72.016 17.071 72.4049 16.6722 72.6719 16.1025C72.9388 15.5329 73.0723 14.7435 73.0723 13.7344C73.0723 12.7188 72.9355 11.9261 72.6621 11.3564C72.3887 10.7868 71.9899 10.3864 71.4658 10.1553C70.9417 9.92415 70.2988 9.80859 69.5371 9.80859H65.7676V6.44922H69.752C71.2493 6.44922 72.5417 6.74056 73.6289 7.32324C74.7161 7.90592 75.556 8.74089 76.1484 9.82812C76.7409 10.9154 77.0371 12.2174 77.0371 13.7344C77.0371 15.2448 76.7425 16.5436 76.1533 17.6309C75.5641 18.7181 74.7292 19.5514 73.6484 20.1309C72.5677 20.7103 71.2884 21 69.8105 21ZM68.1504 6.44922V21H64.2051V6.44922H68.1504Z" fill="#F1F5F9"/>
</svg>
