<svg width="40" height="40" viewBox="0 0 40 40" fill="none" xmlns="http://www.w3.org/2000/svg">
<path d="M4.28571 13.3259C4.28571 14.7992 5.85936 15.1675 6.79686 14.2132L14.2132 6.79692C15.1841 5.84268 14.7991 4.28577 13.3259 4.28577H5.80915C4.87164 4.28577 4.28571 4.92193 4.28571 5.82594V13.3259ZM8.60491 10.7143L29.8158 31.9421L31.942 29.8493L10.731 8.60497L8.60491 10.7143ZM36.2779 27.2378C36.2779 25.7478 34.7043 25.3962 33.75 26.3338L26.3337 33.7501C25.3794 34.7211 25.7646 36.2779 27.2377 36.2779H34.7544C35.692 36.2779 36.2779 35.6251 36.2779 34.7378V27.2378ZM36.2779 13.3259V5.82594C36.2779 4.92193 35.692 4.28577 34.7544 4.28577H27.2377C25.7646 4.28577 25.3794 5.84268 26.3337 6.79692L33.75 14.2132C34.7043 15.1675 36.2779 14.7992 36.2779 13.3259ZM10.731 31.9421L31.9587 10.7143L29.8326 8.60497L8.60491 29.8326L10.731 31.9421ZM4.28571 27.2378V34.7378C4.28571 35.6251 4.87164 36.2779 5.80915 36.2779H13.3259C14.7991 36.2779 15.1841 34.7211 14.2132 33.7501L6.79686 26.3338C5.85936 25.3962 4.28571 25.7478 4.28571 27.2378Z" fill="#9EFF00"/>
</svg>
