<svg width="33" height="33" viewBox="0 0 33 33" fill="none" xmlns="http://www.w3.org/2000/svg">
<path d="M25.2656 3.09375C23.8418 3.09375 22.6875 4.24802 22.6875 5.67188V27.3281C22.6875 28.752 23.8418 29.9062 25.2656 29.9062H26.2969C27.7207 29.9062 28.875 28.752 28.875 27.3281V5.67188C28.875 4.24802 27.7207 3.09375 26.2969 3.09375H25.2656Z" fill="#FBBF24"/>
<path d="M13.4062 11.8594C13.4062 10.4355 14.5605 9.28125 15.9844 9.28125H17.0156C18.4395 9.28125 19.5938 10.4355 19.5938 11.8594V27.3281C19.5938 28.752 18.4395 29.9062 17.0156 29.9062H15.9844C14.5605 29.9062 13.4062 28.752 13.4062 27.3281V11.8594Z" fill="#FBBF24"/>
<path d="M4.125 18.0469C4.125 16.623 5.27927 15.4688 6.70312 15.4688H7.73438C9.15823 15.4688 10.3125 16.623 10.3125 18.0469V27.3281C10.3125 28.752 9.15823 29.9062 7.73438 29.9062H6.70312C5.27927 29.9062 4.125 28.752 4.125 27.3281V18.0469Z" fill="#FBBF24"/>
</svg>
