<svg xmlns="http://www.w3.org/2000/svg">
    <symbol id="arrow" viewBox="0 0 16 16">
        <path d="M12.175 9H0V7H12.175L6.575 1.4L8 0L16 8L8 16L6.575 14.6L12.175 9Z" />
    </symbol>

    <symbol id="card-arrow" viewBox="0 0 19 16">
        <path d="M14.675 8.59253H1C0.447716 8.59253 0 8.14481 0 7.59253C0 7.04024 0.447715 6.59253 1 6.59253H14.675L9.78753 1.70506C9.39503 1.31256 9.39785 0.67534 9.79381 0.286335C10.1848 -0.0978326 10.8124 -0.0950557 11.2 0.292557L18.5 7.59253L11.2 14.8925C10.8124 15.2801 10.1848 15.2829 9.79381 14.8987C9.39785 14.5097 9.39503 13.8725 9.78753 13.48L14.675 8.59253Z"/>
    </symbol>

    <symbol id="rec-brand" viewBox="0 0 40 40">
        <path d="M4.28571 13.3259C4.28571 14.7992 5.85936 15.1675 6.79686 14.2132L14.2132 6.79692C15.1841 5.84268 14.7991 4.28577 13.3259 4.28577H5.80915C4.87164 4.28577 4.28571 4.92193 4.28571 5.82594V13.3259ZM8.60491 10.7143L29.8158 31.9421L31.942 29.8493L10.731 8.60497L8.60491 10.7143ZM36.2779 27.2378C36.2779 25.7478 34.7043 25.3962 33.75 26.3338L26.3337 33.7501C25.3794 34.7211 25.7646 36.2779 27.2377 36.2779H34.7544C35.692 36.2779 36.2779 35.6251 36.2779 34.7378V27.2378ZM36.2779 13.3259V5.82594C36.2779 4.92193 35.692 4.28577 34.7544 4.28577H27.2377C25.7646 4.28577 25.3794 5.84268 26.3337 6.79692L33.75 14.2132C34.7043 15.1675 36.2779 14.7992 36.2779 13.3259ZM10.731 31.9421L31.9587 10.7143L29.8326 8.60497L8.60491 29.8326L10.731 31.9421ZM4.28571 27.2378V34.7378C4.28571 35.6251 4.87164 36.2779 5.80915 36.2779H13.3259C14.7991 36.2779 15.1841 34.7211 14.2132 33.7501L6.79686 26.3338C5.85936 25.3962 4.28571 25.7478 4.28571 27.2378Z" fill="#9EFF00"/>
    </symbol>

    <symbol id="rec-visual" viewBox="0 0 40 40">
        <path d="M4.46355 23.2701H14.57C16.9361 23.2701 18.3149 21.9225 18.3149 19.5879V9.48137C18.3149 7.14669 16.9361 5.79916 14.57 5.79916H4.46355C2.1132 5.79916 0.75 7.13102 0.75 9.48137V19.5879C0.75 21.9383 2.1132 23.2701 4.46355 23.2701ZM24.8332 23.4738H35.1435C37.5878 23.4738 38.9824 22.095 38.9824 19.7132V9.37169C38.9824 6.97433 37.5878 5.59546 35.1435 5.59546H24.8332C22.4045 5.59546 21.0099 6.97433 21.0099 9.37169V19.7132C21.0099 22.095 22.4045 23.4738 24.8332 23.4738ZM24.8646 20.998C23.9402 20.998 23.4857 20.5437 23.4857 19.6036V9.4657C23.4857 8.52556 23.9402 8.07117 24.8646 8.07117H35.1121C36.068 8.07117 36.5067 8.52556 36.5067 9.4657V19.6036C36.5067 20.5437 36.068 20.998 35.1121 20.998H24.8646ZM1.94084 29.1303C1.29841 29.1303 0.75 29.6944 0.75 30.3995C0.75 31.1045 1.29841 31.653 1.94084 31.653H7.00193V29.1303H1.94084ZM9.72833 34.16C11.7966 34.16 13.4889 32.4678 13.4889 30.3995C13.4889 28.3155 11.7966 26.6233 9.72833 26.6233C7.66003 26.6233 5.96777 28.3155 5.96777 30.3995C5.96777 32.4678 7.66003 34.16 9.72833 34.16ZM9.72833 32.2328C8.69418 32.2328 7.89506 31.4179 7.89506 30.3838C7.89506 29.3496 8.69418 28.5506 9.72833 28.5506C10.7468 28.5506 11.5616 29.3496 11.5616 30.3838C11.5616 31.4179 10.7468 32.2328 9.72833 32.2328ZM12.2197 29.1303V31.653H37.7131C38.4183 31.653 38.9824 31.1045 38.9824 30.3995C38.9824 29.6944 38.4183 29.1303 37.7131 29.1303H12.2197Z" fill="#A855F7"/>
    </symbol>

    <symbol id="rec-digital" viewBox="0 0 33 33">
        <path d="M25.2656 3.09375C23.8418 3.09375 22.6875 4.24802 22.6875 5.67188V27.3281C22.6875 28.752 23.8418 29.9062 25.2656 29.9062H26.2969C27.7207 29.9062 28.875 28.752 28.875 27.3281V5.67188C28.875 4.24802 27.7207 3.09375 26.2969 3.09375H25.2656Z" fill="#FBBF24"/>
        <path d="M13.4062 11.8594C13.4062 10.4355 14.5605 9.28125 15.9844 9.28125H17.0156C18.4395 9.28125 19.5938 10.4355 19.5938 11.8594V27.3281C19.5938 28.752 18.4395 29.9062 17.0156 29.9062H15.9844C14.5605 29.9062 13.4062 28.752 13.4062 27.3281V11.8594Z" fill="#FBBF24"/>
        <path d="M4.125 18.0469C4.125 16.623 5.27927 15.4688 6.70312 15.4688H7.73438C9.15823 15.4688 10.3125 16.623 10.3125 18.0469V27.3281C10.3125 28.752 9.15823 29.9062 7.73438 29.9062H6.70312C5.27927 29.9062 4.125 28.752 4.125 27.3281V18.0469Z" fill="#FBBF24"/>
    </symbol>

    <symbol id="earth" width="17" height="17" viewBox="0 0 17 17" xmlns="http://www.w3.org/2000/svg">
        <path d="M8.33333 16.6667C7.18056 16.6667 6.09722 16.4479 5.08333 16.0104C4.06944 15.5729 3.1875 14.9792 2.4375 14.2292C1.6875 13.4792 1.09375 12.5972 0.65625 11.5833C0.21875 10.5694 0 9.48611 0 8.33333C0 7.18056 0.21875 6.09722 0.65625 5.08333C1.09375 4.06944 1.6875 3.1875 2.4375 2.4375C3.1875 1.6875 4.06944 1.09375 5.08333 0.65625C6.09722 0.21875 7.18056 0 8.33333 0C9.48611 0 10.5694 0.21875 11.5833 0.65625C12.5972 1.09375 13.4792 1.6875 14.2292 2.4375C14.9792 3.1875 15.5729 4.06944 16.0104 5.08333C16.4479 6.09722 16.6667 7.18056 16.6667 8.33333C16.6667 9.48611 16.4479 10.5694 16.0104 11.5833C15.5729 12.5972 14.9792 13.4792 14.2292 14.2292C13.4792 14.9792 12.5972 15.5729 11.5833 16.0104C10.5694 16.4479 9.48611 16.6667 8.33333 16.6667ZM7.5 14.9583V13.3333C7.04167 13.3333 6.64931 13.1701 6.32292 12.8438C5.99653 12.5174 5.83333 12.125 5.83333 11.6667V10.8333L1.83333 6.83333C1.79167 7.08333 1.75347 7.33333 1.71875 7.58333C1.68403 7.83333 1.66667 8.08333 1.66667 8.33333C1.66667 10.0139 2.21875 11.4861 3.32292 12.75C4.42708 14.0139 5.81944 14.75 7.5 14.9583ZM13.25 12.8333C13.8194 12.2083 14.2535 11.5104 14.5521 10.7396C14.8507 9.96875 15 9.16667 15 8.33333C15 6.97222 14.6215 5.72917 13.8646 4.60417C13.1076 3.47917 12.0972 2.66667 10.8333 2.16667V2.5C10.8333 2.95833 10.6701 3.35069 10.3438 3.67708C10.0174 4.00347 9.625 4.16667 9.16667 4.16667H7.5V5.83333C7.5 6.06944 7.42014 6.26736 7.26042 6.42708C7.10069 6.58681 6.90278 6.66667 6.66667 6.66667H5V8.33333H10C10.2361 8.33333 10.434 8.41319 10.5938 8.57292C10.7535 8.73264 10.8333 8.93056 10.8333 9.16667V11.6667H11.6667C12.0278 11.6667 12.3542 11.7743 12.6458 11.9896C12.9375 12.2049 13.1389 12.4861 13.25 12.8333Z" fill="#F1F5F9"/>
    </symbol>

    <symbol id="email-sign" width="17" height="17" viewBox="0 0 17 17" xmlns="http://www.w3.org/2000/svg">
        <path d="M8.33333 16.6667C7.18056 16.6667 6.09722 16.4479 5.08333 16.0104C4.06944 15.5729 3.1875 14.9792 2.4375 14.2292C1.6875 13.4792 1.09375 12.5972 0.65625 11.5833C0.21875 10.5694 0 9.48611 0 8.33333C0 7.18056 0.21875 6.09722 0.65625 5.08333C1.09375 4.06944 1.6875 3.1875 2.4375 2.4375C3.1875 1.6875 4.06944 1.09375 5.08333 0.65625C6.09722 0.21875 7.18056 0 8.33333 0C9.48611 0 10.5694 0.21875 11.5833 0.65625C12.5972 1.09375 13.4792 1.6875 14.2292 2.4375C14.9792 3.1875 15.5729 4.06944 16.0104 5.08333C16.4479 6.09722 16.6667 7.18056 16.6667 8.33333V9.54167C16.6667 10.3611 16.3854 11.059 15.8229 11.6354C15.2604 12.2118 14.5694 12.5 13.75 12.5C13.2639 12.5 12.8056 12.3958 12.375 12.1875C11.9444 11.9792 11.5833 11.6806 11.2917 11.2917C10.8889 11.6944 10.434 11.9965 9.92708 12.1979C9.42014 12.3993 8.88889 12.5 8.33333 12.5C7.18056 12.5 6.19792 12.0938 5.38542 11.2812C4.57292 10.4688 4.16667 9.48611 4.16667 8.33333C4.16667 7.18056 4.57292 6.19792 5.38542 5.38542C6.19792 4.57292 7.18056 4.16667 8.33333 4.16667C9.48611 4.16667 10.4688 4.57292 11.2812 5.38542C12.0938 6.19792 12.5 7.18056 12.5 8.33333V9.54167C12.5 9.90278 12.6181 10.2083 12.8542 10.4583C13.0903 10.7083 13.3889 10.8333 13.75 10.8333C14.1111 10.8333 14.4097 10.7083 14.6458 10.4583C14.8819 10.2083 15 9.90278 15 9.54167V8.33333C15 6.47222 14.3542 4.89583 13.0625 3.60417C11.7708 2.3125 10.1944 1.66667 8.33333 1.66667C6.47222 1.66667 4.89583 2.3125 3.60417 3.60417C2.3125 4.89583 1.66667 6.47222 1.66667 8.33333C1.66667 10.1944 2.3125 11.7708 3.60417 13.0625C4.89583 14.3542 6.47222 15 8.33333 15H12.5V16.6667H8.33333ZM8.33333 10.8333C9.02778 10.8333 9.61806 10.5903 10.1042 10.1042C10.5903 9.61806 10.8333 9.02778 10.8333 8.33333C10.8333 7.63889 10.5903 7.04861 10.1042 6.5625C9.61806 6.07639 9.02778 5.83333 8.33333 5.83333C7.63889 5.83333 7.04861 6.07639 6.5625 6.5625C6.07639 7.04861 5.83333 7.63889 5.83333 8.33333C5.83333 9.02778 6.07639 9.61806 6.5625 10.1042C7.04861 10.5903 7.63889 10.8333 8.33333 10.8333Z" fill="#F1F5F9"/>
    </symbol>

    <symbol id="cam" width="17" height="17" viewBox="0 0 17 17" xmlns="http://www.w3.org/2000/svg">
        <path d="M7.83333 5.83333H14.5C14.125 4.875 13.5521 4.05208 12.7812 3.36458C12.0104 2.67708 11.125 2.19444 10.125 1.91667L7.83333 5.83333ZM5.91667 7.5L9.25 1.75C9.09722 1.72222 8.94444 1.70139 8.79167 1.6875C8.63889 1.67361 8.48611 1.66667 8.33333 1.66667C7.41667 1.66667 6.5625 1.84028 5.77083 2.1875C4.97917 2.53472 4.27778 3 3.66667 3.58333L5.91667 7.5ZM1.875 10H6.41667L3.08333 4.25C2.63889 4.81944 2.29167 5.44792 2.04167 6.13542C1.79167 6.82292 1.66667 7.55556 1.66667 8.33333C1.66667 8.625 1.68403 8.90625 1.71875 9.17708C1.75347 9.44792 1.80556 9.72222 1.875 10ZM6.54167 14.75L8.79167 10.8333H2.16667C2.54167 11.7917 3.11458 12.6146 3.88542 13.3021C4.65625 13.9896 5.54167 14.4722 6.54167 14.75ZM8.33333 15C9.25 15 10.1042 14.8264 10.8958 14.4792C11.6875 14.1319 12.3889 13.6667 13 13.0833L10.75 9.16667L7.41667 14.9167C7.56944 14.9444 7.71875 14.9653 7.86458 14.9792C8.01042 14.9931 8.16667 15 8.33333 15ZM13.5833 12.4167C14.0278 11.8472 14.375 11.2188 14.625 10.5312C14.875 9.84375 15 9.11111 15 8.33333C15 8.04167 14.9826 7.76042 14.9479 7.48958C14.9132 7.21875 14.8611 6.94444 14.7917 6.66667H10.25L13.5833 12.4167ZM8.33333 16.6667C7.19444 16.6667 6.11806 16.4479 5.10417 16.0104C4.09028 15.5729 3.20486 14.9757 2.44792 14.2188C1.69097 13.4618 1.09375 12.5764 0.65625 11.5625C0.21875 10.5486 0 9.47222 0 8.33333C0 7.18056 0.21875 6.10069 0.65625 5.09375C1.09375 4.08681 1.69097 3.20486 2.44792 2.44792C3.20486 1.69097 4.09028 1.09375 5.10417 0.65625C6.11806 0.21875 7.19444 0 8.33333 0C9.48611 0 10.566 0.21875 11.5729 0.65625C12.5799 1.09375 13.4618 1.69097 14.2188 2.44792C14.9757 3.20486 15.5729 4.08681 16.0104 5.09375C16.4479 6.10069 16.6667 7.18056 16.6667 8.33333C16.6667 9.47222 16.4479 10.5486 16.0104 11.5625C15.5729 12.5764 14.9757 13.4618 14.2188 14.2188C13.4618 14.9757 12.5799 15.5729 11.5729 16.0104C10.566 16.4479 9.48611 16.6667 8.33333 16.6667Z" fill="#F1F5F9"/>
    </symbol>
</svg>